<svg xmlns="http://www.w3.org/2000/svg" width="1167.004" height="702.757" viewBox="0 0 1167.004 702.757"><defs><style>.a{opacity:0.38;}.b{fill:#ff9177;}</style></defs><g class="a" transform="translate(-149.575 -30.953)"><g transform="translate(149.575 30.953)"><g transform="translate(832.895 683.209)"><path class="b" d="M698.136,364.879c-28.056-10.959-54.9-16.288-82.06-16.288s-54,5.329-82.06,16.288l-1.184-3.034c28.443-11.112,55.673-16.514,83.245-16.514s54.8,5.4,83.247,16.514Z" transform="translate(-532.831 -345.331)"/></g><g transform="translate(167.044 683.209)"><path class="b" d="M391.747,364.879c-28.056-10.959-54.9-16.288-82.058-16.288s-54,5.329-82.063,16.288l-1.187-3.034c28.445-11.112,55.675-16.514,83.249-16.514s54.8,5.4,83.245,16.514Z" transform="translate(-226.44 -345.331)"/></g><g transform="translate(786.773 661.346)"><path class="b" d="M768.777,376.595c-34.415-18.822-76.51-38.064-127.8-38.064s-93.387,19.242-127.8,38.064l-1.565-2.86c34.776-19.02,77.34-38.464,129.367-38.464s94.591,19.444,129.367,38.464Z" transform="translate(-511.608 -335.271)"/></g><g transform="translate(120.926 661.346)"><path class="b" d="M462.388,376.595c-34.415-18.822-76.51-38.064-127.8-38.064s-93.389,19.242-127.8,38.064l-1.565-2.86c34.773-19.02,77.338-38.464,129.367-38.464s94.591,19.444,129.364,38.464Z" transform="translate(-205.219 -335.271)"/></g><g transform="translate(748.848 639.477)"><path class="b" d="M827.079,388.374c-49.69-29.451-101.072-59.907-165.631-59.907s-115.941,30.455-165.631,59.907l-1.66-2.806C544.223,355.894,596,325.208,661.448,325.208s117.225,30.686,167.294,60.361Z" transform="translate(-494.157 -325.208)"/></g><g transform="translate(83.004 639.477)"><path class="b" d="M520.687,388.374c-49.7-29.456-101.074-59.907-165.629-59.907s-115.941,30.453-165.627,59.9l-1.663-2.8c50.066-29.675,101.837-60.359,167.289-60.359s117.216,30.681,167.278,60.354Z" transform="translate(-187.769 -325.208)"/></g><g transform="translate(711.019 617.61)"><path class="b" d="M885.43,400.205c-12.794-7-25.568-14.569-37.922-21.891-49.69-29.453-101.076-59.909-165.638-59.909S565.93,348.859,516.239,378.312c-12.355,7.322-25.131,14.9-37.925,21.893l-1.565-2.86c12.746-6.972,25.5-14.53,37.827-21.839,50.068-29.675,101.841-60.361,167.293-60.361s117.232,30.688,167.3,60.363c12.331,7.309,25.081,14.867,37.823,21.836Z" transform="translate(-476.75 -315.146)"/></g><g transform="translate(45.168 617.61)"><path class="b" d="M579.042,400.205c-12.8-7-25.574-14.571-37.931-21.9-49.688-29.451-101.069-59.9-165.627-59.9s-115.943,30.453-165.633,59.9c-12.355,7.324-25.133,14.9-37.927,21.9l-1.565-2.86c12.746-6.972,25.5-14.53,37.831-21.839,50.066-29.675,101.839-60.361,167.294-60.361S492.707,345.832,542.773,375.5c12.333,7.311,25.085,14.869,37.831,21.841Z" transform="translate(-170.359 -315.146)"/></g><g transform="translate(665.273 595.746)"><path class="b" d="M956.244,412.1c-29.525-11.533-57.238-27.958-84.038-43.842-49.69-29.454-101.074-59.909-165.64-59.909s-115.941,30.453-165.631,59.9c-26.8,15.886-54.519,32.313-84.049,43.847l-1.187-3.034c29.282-11.44,56.881-27.8,83.573-43.616,50.068-29.677,101.841-60.361,167.293-60.361s117.234,30.686,167.3,60.365c26.689,15.817,54.285,32.172,83.562,43.612Z" transform="translate(-455.7 -305.085)"/></g><g transform="translate(0 595.746)"><path class="b" d="M649.545,412.1c-29.527-11.533-57.244-27.961-84.047-43.844-49.69-29.451-101.072-59.907-165.631-59.907s-115.941,30.453-165.629,59.9c-26.628,15.78-54.163,32.1-83.471,43.621l-1.193-3.036c29.064-11.42,56.484-27.674,83-43.39,50.066-29.675,101.837-60.359,167.291-60.359s117.225,30.686,167.293,60.361c26.691,15.819,54.289,32.177,83.571,43.616Z" transform="translate(-149.575 -305.085)"/></g><g transform="translate(0 573.879)"><path class="b" d="M732.79,418.548c-65.453,0-117.225-30.688-167.294-60.361-49.688-29.451-101.069-59.9-165.629-59.9s-115.943,30.451-165.631,59.9c-26.628,15.784-54.163,32.1-83.469,43.623l-1.193-3.034c29.062-11.425,56.482-27.674,83-43.392,50.069-29.673,101.839-60.359,167.294-60.359s117.225,30.686,167.293,60.359c49.688,29.451,101.069,59.907,165.629,59.907s115.943-30.455,165.631-59.907c50.066-29.673,101.839-60.359,167.293-60.359v3.26c-64.562,0-115.943,30.453-165.631,59.9C850.017,387.86,798.245,418.548,732.79,418.548Z" transform="translate(-149.575 -295.023)"/></g><g transform="translate(0 552.01)"><path class="b" d="M732.79,408.487c-65.453,0-117.225-30.686-167.294-60.361-49.688-29.451-101.069-59.907-165.629-59.907s-115.941,30.455-165.629,59.907c-26.628,15.782-54.165,32.1-83.471,43.623l-1.193-3.036c29.062-11.422,56.484-27.676,83-43.39,50.066-29.677,101.837-60.363,167.291-60.363s117.225,30.686,167.293,60.363c49.688,29.449,101.069,59.9,165.629,59.9s115.943-30.455,165.631-59.9c50.066-29.677,101.839-60.363,167.293-60.363v3.26c-64.562,0-115.941,30.455-165.631,59.907C850.017,377.8,798.245,408.487,732.79,408.487Z" transform="translate(-149.575 -284.96)"/></g><g transform="translate(0 530.148)"><path class="b" d="M732.79,398.425c-65.453,0-117.225-30.688-167.294-60.361-49.688-29.451-101.069-59.9-165.629-59.9s-115.941,30.451-165.629,59.9c-26.628,15.782-54.163,32.1-83.471,43.621l-1.193-3.034c29.064-11.422,56.484-27.674,83-43.392C282.643,305.584,334.415,274.9,399.868,274.9s117.225,30.686,167.293,60.359c49.688,29.451,101.069,59.907,165.629,59.907s115.943-30.455,165.631-59.907c50.066-29.673,101.839-60.359,167.293-60.359v3.26c-64.562,0-115.943,30.453-165.631,59.9C850.017,367.737,798.245,398.425,732.79,398.425Z" transform="translate(-149.575 -274.9)"/></g><g transform="translate(0 508.279)"><path class="b" d="M732.79,388.362c-65.453,0-117.225-30.686-167.294-60.359C515.808,298.552,464.427,268.1,399.868,268.1S283.925,298.55,234.237,328c-26.628,15.782-54.163,32.1-83.469,43.623l-1.193-3.036c29.062-11.422,56.482-27.674,83-43.39,50.069-29.675,101.839-60.361,167.294-60.361S517.093,295.523,567.161,325.2c49.688,29.449,101.069,59.9,165.629,59.9s115.943-30.455,165.631-59.9c50.066-29.675,101.839-60.361,167.293-60.361v3.26c-64.562,0-115.943,30.455-165.631,59.907C850.017,357.676,798.245,388.362,732.79,388.362Z" transform="translate(-149.575 -264.837)"/></g><g transform="translate(0 486.414)"><path class="b" d="M732.79,378.3c-65.453,0-117.225-30.686-167.294-60.359-49.688-29.451-101.069-59.9-165.629-59.9s-115.941,30.453-165.629,59.9c-26.628,15.784-54.163,32.1-83.471,43.623l-1.193-3.034c29.064-11.422,56.484-27.676,83-43.392,50.066-29.673,101.837-60.359,167.289-60.359s117.225,30.686,167.293,60.361c49.688,29.451,101.069,59.9,165.629,59.9s115.943-30.451,165.631-59.9c50.066-29.675,101.839-60.361,167.293-60.361v3.26c-64.562,0-115.943,30.453-165.631,59.9C850.017,347.613,798.245,378.3,732.79,378.3Z" transform="translate(-149.575 -254.776)"/></g><g transform="translate(0 464.547)"><path class="b" d="M732.79,368.239c-65.453,0-117.225-30.686-167.294-60.359-49.688-29.451-101.069-59.907-165.629-59.907s-115.943,30.453-165.631,59.9c-26.628,15.782-54.163,32.1-83.469,43.623l-1.193-3.036c29.062-11.424,56.482-27.674,83-43.39,50.069-29.675,101.839-60.361,167.294-60.361S517.093,275.4,567.161,305.075c49.688,29.449,101.069,59.9,165.629,59.9s115.943-30.455,165.631-59.9c50.066-29.675,101.839-60.361,167.293-60.361v3.26c-64.562,0-115.943,30.455-165.631,59.907C850.017,337.553,798.245,368.239,732.79,368.239Z" transform="translate(-149.575 -244.714)"/></g><g transform="translate(0 442.68)"><path class="b" d="M732.79,358.175c-65.453,0-117.225-30.686-167.294-60.359-49.688-29.451-101.069-59.9-165.629-59.9s-115.941,30.453-165.629,59.9c-26.628,15.784-54.163,32.1-83.471,43.623l-1.193-3.034c29.064-11.422,56.484-27.676,83-43.392,50.066-29.675,101.837-60.359,167.289-60.359s117.225,30.686,167.293,60.361c49.688,29.451,101.069,59.9,165.629,59.9s115.943-30.451,165.631-59.9c50.066-29.675,101.839-60.361,167.293-60.361v3.26c-64.562,0-115.943,30.453-165.631,59.9C850.017,327.489,798.245,358.175,732.79,358.175Z" transform="translate(-149.575 -234.652)"/></g><g transform="translate(0 420.816)"><path class="b" d="M732.79,348.114c-65.453,0-117.225-30.686-167.294-60.359-49.688-29.451-101.069-59.9-165.629-59.9s-115.941,30.451-165.629,59.9c-26.628,15.782-54.165,32.1-83.471,43.623l-1.193-3.036c29.062-11.425,56.484-27.674,83-43.39,50.066-29.675,101.837-60.359,167.291-60.359s117.225,30.684,167.293,60.359c49.688,29.451,101.069,59.9,165.629,59.9s115.943-30.453,165.631-59.9c50.066-29.675,101.839-60.359,167.293-60.359v3.26c-64.562,0-115.943,30.453-165.631,59.9C850.017,317.428,798.245,348.114,732.79,348.114Z" transform="translate(-149.575 -224.591)"/></g><g transform="translate(0 398.949)"><path class="b" d="M732.79,338.052c-65.453,0-117.225-30.684-167.294-60.359-49.688-29.451-101.069-59.9-165.629-59.9s-115.941,30.453-165.629,59.9c-26.628,15.782-54.165,32.1-83.471,43.621l-1.193-3.034c29.062-11.424,56.484-27.676,83-43.392,50.066-29.673,101.837-60.359,167.291-60.359s117.225,30.686,167.293,60.359c49.688,29.451,101.069,59.9,165.629,59.9s115.943-30.453,165.631-59.9c50.066-29.673,101.839-60.359,167.293-60.359v3.26c-64.562,0-115.943,30.453-165.631,59.9C850.017,307.368,798.245,338.052,732.79,338.052Z" transform="translate(-149.575 -214.529)"/></g><g transform="translate(0 377.082)"><path class="b" d="M732.79,327.992c-65.453,0-117.225-30.686-167.294-60.361-49.688-29.451-101.069-59.9-165.629-59.9s-115.941,30.453-165.629,59.9c-26.628,15.782-54.165,32.1-83.471,43.621l-1.193-3.034c29.062-11.424,56.484-27.676,83-43.392,50.066-29.673,101.837-60.359,167.291-60.359s117.225,30.686,167.293,60.361c49.688,29.451,101.069,59.9,165.629,59.9s115.943-30.453,165.631-59.9c50.066-29.675,101.839-60.361,167.293-60.361v3.26c-64.562,0-115.943,30.453-165.631,59.9C850.017,297.306,798.245,327.992,732.79,327.992Z" transform="translate(-149.575 -204.467)"/></g><g transform="translate(0 355.215)"><path class="b" d="M732.79,317.93c-65.453,0-117.225-30.686-167.294-60.361-49.688-29.451-101.069-59.9-165.629-59.9s-115.941,30.453-165.629,59.9c-26.628,15.784-54.165,32.1-83.471,43.625l-1.193-3.034c29.064-11.425,56.484-27.678,83-43.395C282.643,225.091,334.413,194.4,399.868,194.4s117.225,30.686,167.293,60.361c49.688,29.451,101.069,59.9,165.629,59.9s115.943-30.453,165.631-59.9c50.066-29.675,101.839-60.361,167.293-60.361v3.26c-64.562,0-115.943,30.453-165.631,59.9C850.017,287.244,798.245,317.93,732.79,317.93Z" transform="translate(-149.575 -194.405)"/></g><g transform="translate(0 333.351)"><path class="b" d="M732.79,307.867c-65.453,0-117.225-30.686-167.294-60.361-49.688-29.449-101.069-59.9-165.629-59.9s-115.941,30.451-165.629,59.9c-26.628,15.782-54.165,32.1-83.471,43.621l-1.193-3.034c29.062-11.422,56.484-27.676,83-43.392,50.066-29.673,101.837-60.357,167.291-60.357S517.093,215.028,567.161,244.7c49.688,29.451,101.069,59.9,165.629,59.9s115.943-30.453,165.631-59.9c50.066-29.675,101.839-60.359,167.293-60.359v3.26c-64.562,0-115.943,30.453-165.631,59.9C850.017,277.181,798.245,307.867,732.79,307.867Z" transform="translate(-149.575 -184.344)"/></g><g transform="translate(0 311.484)"><path class="b" d="M732.79,297.807c-65.453,0-117.225-30.686-167.294-60.361-49.688-29.451-101.069-59.9-165.629-59.9s-115.941,30.453-165.629,59.9c-26.628,15.784-54.165,32.1-83.471,43.623l-1.193-3.034c29.062-11.424,56.484-27.676,83-43.392,50.066-29.673,101.837-60.359,167.291-60.359s117.225,30.686,167.293,60.361c49.688,29.451,101.069,59.9,165.629,59.9s115.943-30.453,165.631-59.9c50.066-29.675,101.839-60.361,167.293-60.361v3.26c-64.562,0-115.943,30.453-165.631,59.9C850.017,267.121,798.245,297.807,732.79,297.807Z" transform="translate(-149.575 -174.282)"/></g><g transform="translate(0 289.617)"><path class="b" d="M732.79,287.745c-65.453,0-117.225-30.686-167.294-60.361-49.688-29.451-101.069-59.9-165.629-59.9s-115.943,30.453-165.631,59.9c-26.628,15.782-54.163,32.1-83.469,43.621l-1.193-3.034c29.062-11.422,56.482-27.676,83-43.392,50.069-29.673,101.839-60.359,167.294-60.359s117.225,30.686,167.293,60.361c49.688,29.451,101.069,59.9,165.629,59.9s115.943-30.453,165.631-59.9c50.066-29.675,101.839-60.361,167.293-60.361v3.26c-64.562,0-115.943,30.453-165.631,59.9C850.017,257.059,798.245,287.745,732.79,287.745Z" transform="translate(-149.575 -164.22)"/></g><g transform="translate(0 267.75)"><path class="b" d="M732.79,277.683c-65.453,0-117.225-30.686-167.294-60.361-49.688-29.451-101.069-59.9-165.629-59.9s-115.943,30.453-165.631,59.9c-26.628,15.784-54.163,32.1-83.469,43.623l-1.193-3.034c29.062-11.425,56.482-27.676,83-43.392,50.066-29.675,101.837-60.361,167.291-60.361s117.225,30.686,167.293,60.361c49.688,29.451,101.069,59.9,165.629,59.9s115.943-30.453,165.631-59.9c50.066-29.675,101.839-60.361,167.293-60.361v3.26c-64.562,0-115.943,30.453-165.631,59.9C850.017,247,798.245,277.683,732.79,277.683Z" transform="translate(-149.575 -154.158)"/></g><g transform="translate(0 245.885)"><path class="b" d="M732.79,267.62c-65.453,0-117.225-30.684-167.294-60.359-49.688-29.451-101.069-59.9-165.629-59.9s-115.943,30.453-165.631,59.9c-26.628,15.782-54.163,32.1-83.469,43.623l-1.193-3.036c29.062-11.422,56.482-27.674,83-43.39C282.643,174.783,334.413,144.1,399.868,144.1s117.225,30.686,167.293,60.359c49.688,29.451,101.069,59.9,165.629,59.9s115.943-30.453,165.631-59.9c50.066-29.673,101.839-60.359,167.293-60.359v3.26c-64.562,0-115.943,30.453-165.631,59.9C850.017,236.936,798.245,267.62,732.79,267.62Z" transform="translate(-149.575 -144.097)"/></g><g transform="translate(0 224.019)"><path class="b" d="M732.79,257.56c-65.453,0-117.225-30.686-167.294-60.361-49.688-29.451-101.069-59.9-165.629-59.9s-115.941,30.453-165.629,59.9c-26.628,15.784-54.165,32.1-83.471,43.623l-1.193-3.034c29.062-11.425,56.484-27.676,83-43.392,50.066-29.673,101.837-60.359,167.291-60.359S517.093,164.721,567.161,194.4c49.688,29.451,101.069,59.9,165.629,59.9s115.943-30.453,165.631-59.9c50.066-29.675,101.839-60.361,167.293-60.361v3.26c-64.562,0-115.943,30.453-165.631,59.9C850.017,226.874,798.245,257.56,732.79,257.56Z" transform="translate(-149.575 -134.035)"/></g><g transform="translate(0 202.152)"><path class="b" d="M732.79,247.5c-65.453,0-117.225-30.686-167.294-60.361-49.688-29.451-101.069-59.9-165.629-59.9s-115.943,30.453-165.631,59.9c-26.628,15.782-54.163,32.1-83.469,43.621l-1.193-3.034c29.062-11.422,56.482-27.676,83-43.392,50.069-29.673,101.839-60.359,167.294-60.359s117.225,30.686,167.293,60.361c49.688,29.451,101.069,59.9,165.629,59.9s115.943-30.453,165.631-59.9c50.066-29.675,101.839-60.361,167.293-60.361v3.26c-64.562,0-115.943,30.453-165.631,59.9C850.017,216.812,798.245,247.5,732.79,247.5Z" transform="translate(-149.575 -123.973)"/></g><g transform="translate(0 180.285)"><path class="b" d="M732.79,237.436c-65.453,0-117.225-30.684-167.294-60.361-49.688-29.449-101.069-59.9-165.629-59.9s-115.939,30.453-165.627,59.9c-26.63,15.784-54.165,32.1-83.473,43.623l-1.193-3.034c29.064-11.425,56.486-27.676,83-43.392,50.066-29.673,101.837-60.359,167.289-60.359S517.093,144.6,567.161,174.272c49.688,29.451,101.069,59.9,165.629,59.9s115.943-30.453,165.631-59.9c50.066-29.675,101.839-60.361,167.293-60.361v3.26c-64.562,0-115.943,30.455-165.631,59.9C850.017,206.753,798.245,237.436,732.79,237.436Z" transform="translate(-149.575 -113.911)"/></g><g transform="translate(0 158.42)"><path class="b" d="M732.79,227.373c-65.453,0-117.225-30.684-167.294-60.359-49.688-29.451-101.069-59.9-165.629-59.9s-115.943,30.453-165.631,59.9c-26.628,15.782-54.163,32.1-83.469,43.621l-1.193-3.034c29.062-11.425,56.482-27.676,83-43.392,50.066-29.675,101.839-60.359,167.294-60.359s117.225,30.684,167.293,60.359c49.688,29.451,101.069,59.9,165.629,59.9s115.943-30.453,165.631-59.9c50.066-29.675,101.839-60.359,167.293-60.359v3.26c-64.562,0-115.943,30.453-165.631,59.9C850.017,196.689,798.245,227.373,732.79,227.373Z" transform="translate(-149.575 -103.85)"/></g><g transform="translate(0 136.554)"><path class="b" d="M732.79,217.311c-65.453,0-117.225-30.684-167.294-60.359-49.688-29.451-101.069-59.9-165.629-59.9S283.927,127.5,234.239,156.95c-26.628,15.784-54.165,32.1-83.471,43.623l-1.193-3.034c29.062-11.425,56.484-27.676,83-43.392,50.066-29.675,101.837-60.359,167.291-60.359s117.225,30.684,167.293,60.359c49.688,29.451,101.069,59.9,165.629,59.9s115.943-30.453,165.631-59.9c50.066-29.675,101.839-60.359,167.293-60.359v3.26c-64.562,0-115.943,30.453-165.631,59.9C850.017,186.627,798.245,217.311,732.79,217.311Z" transform="translate(-149.575 -93.788)"/></g><g transform="translate(0 114.687)"><path class="b" d="M732.79,207.251c-65.453,0-117.225-30.686-167.294-60.361-49.688-29.451-101.069-59.9-165.629-59.9s-115.941,30.453-165.629,59.9c-26.628,15.784-54.165,32.1-83.471,43.623l-1.193-3.034c29.064-11.422,56.484-27.676,83-43.392,50.066-29.675,101.837-60.359,167.291-60.359s117.225,30.684,167.293,60.361c49.688,29.449,101.069,59.9,165.629,59.9s115.943-30.455,165.631-59.9c50.066-29.677,101.839-60.361,167.293-60.361v3.26c-64.562,0-115.943,30.453-165.631,59.9C850.017,176.565,798.245,207.251,732.79,207.251Z" transform="translate(-149.575 -83.726)"/></g><g transform="translate(0 92.82)"><path class="b" d="M732.79,197.189c-65.453,0-117.225-30.686-167.294-60.361-49.688-29.451-101.069-59.9-165.629-59.9s-115.941,30.453-165.629,59.9c-26.628,15.782-54.165,32.1-83.471,43.623l-1.193-3.034c29.062-11.425,56.484-27.678,83-43.395,50.066-29.673,101.837-60.359,167.291-60.359s117.225,30.686,167.293,60.361c49.688,29.449,101.069,59.9,165.629,59.9s115.943-30.455,165.631-59.9c50.066-29.675,101.839-60.361,167.293-60.361v3.26c-64.562,0-115.943,30.453-165.631,59.9C850.017,166.5,798.245,197.189,732.79,197.189Z" transform="translate(-149.575 -73.664)"/></g><g transform="translate(0 70.953)"><path class="b" d="M732.79,187.127c-65.453,0-117.225-30.684-167.294-60.361-49.688-29.451-101.069-59.9-165.629-59.9s-115.943,30.453-165.631,59.9c-26.628,15.782-54.163,32.1-83.469,43.623l-1.193-3.034c29.062-11.425,56.482-27.676,83-43.392C282.643,94.288,334.413,63.6,399.868,63.6s117.225,30.686,167.293,60.361c49.688,29.451,101.069,59.9,165.629,59.9s115.943-30.453,165.631-59.9C948.487,94.288,1000.26,63.6,1065.715,63.6v3.26c-64.562,0-115.943,30.453-165.631,59.9C850.017,156.444,798.245,187.127,732.79,187.127Z" transform="translate(-149.575 -63.602)"/></g><g transform="translate(0 49.088)"><path class="b" d="M732.79,177.064c-65.453,0-117.225-30.684-167.294-60.359C515.808,87.254,464.427,56.8,399.868,56.8S283.927,87.252,234.239,116.7c-26.628,15.782-54.165,32.1-83.471,43.621l-1.193-3.032c29.062-11.425,56.484-27.676,83-43.392,50.066-29.675,101.837-60.359,167.291-60.359S517.093,84.225,567.161,113.9c49.688,29.451,101.069,59.9,165.629,59.9s115.943-30.453,165.631-59.9c50.066-29.675,101.839-60.359,167.293-60.359V56.8c-64.562,0-115.943,30.453-165.631,59.9C850.017,146.38,798.245,177.064,732.79,177.064Z" transform="translate(-149.575 -53.541)"/></g><g transform="translate(0 27.222)"><path class="b" d="M732.79,167c-65.453,0-117.225-30.686-167.294-60.361-49.688-29.451-101.069-59.9-165.629-59.9s-115.941,30.453-165.629,59.9c-26.628,15.784-54.165,32.1-83.471,43.623l-1.193-3.034c29.064-11.422,56.484-27.676,83-43.392,50.066-29.675,101.837-60.359,167.291-60.359S517.093,74.165,567.161,103.84c49.688,29.451,101.069,59.9,165.629,59.9s115.943-30.453,165.631-59.9c50.066-29.675,101.839-60.361,167.293-60.361v3.26c-64.562,0-115.943,30.453-165.631,59.9C850.017,136.318,798.245,167,732.79,167Z" transform="translate(-149.575 -43.479)"/></g><g transform="translate(0 5.355)"><path class="b" d="M732.79,156.942c-65.453,0-117.225-30.686-167.294-60.361-49.688-29.451-101.069-59.9-165.629-59.9S283.927,67.13,234.239,96.581c-26.628,15.782-54.165,32.1-83.471,43.621l-1.193-3.034c29.062-11.422,56.484-27.676,83-43.392C282.643,64.1,334.413,33.417,399.868,33.417S517.093,64.1,567.161,93.778c49.688,29.451,101.069,59.9,165.629,59.9s115.943-30.453,165.631-59.9C948.487,64.1,1000.26,33.417,1065.715,33.417v3.26c-64.562,0-115.943,30.453-165.631,59.9C850.017,126.256,798.245,156.942,732.79,156.942Z" transform="translate(-149.575 -33.417)"/></g><g transform="translate(332.351)"><path class="b" d="M553.37,137.966c-65.455,0-117.229-30.688-167.3-60.363-26.689-15.819-54.287-32.174-83.564-43.614l1.187-3.036c29.525,11.535,57.24,27.96,84.04,43.847,49.693,29.451,101.076,59.907,165.638,59.907S669.311,104.253,719,74.8c26.8-15.886,54.519-32.313,84.049-43.849l1.184,3.036c-29.28,11.44-56.879,27.8-83.571,43.616C670.6,107.28,618.825,137.966,553.37,137.966Z" transform="translate(-302.506 -30.953)"/></g><path class="b" d="M150.768,121.228l-1.193-3.036c29.062-11.422,56.482-27.674,83-43.392,26.8-15.884,54.517-32.311,84.042-43.847l1.187,3.036c-29.277,11.438-56.877,27.8-83.566,43.616C207.608,93.387,180.074,109.708,150.768,121.228Z" transform="translate(-149.575 -30.953)"/><g transform="translate(378.095 0.087)"><path class="b" d="M528.675,116.055c-65.455,0-117.227-30.688-167.3-60.363-12.331-7.309-25.081-14.867-37.825-21.836l1.563-2.862c12.8,7,25.57,14.571,37.925,21.9,49.69,29.451,101.072,59.907,165.633,59.907S644.618,82.339,694.309,52.888c12.355-7.324,25.131-14.9,37.925-21.9l1.565,2.862c-12.746,6.969-25.5,14.528-37.827,21.836C645.9,85.367,594.13,116.055,528.675,116.055Z" transform="translate(-323.555 -30.993)"/></g><g transform="translate(0 0.087)"><path class="b" d="M150.768,99.314l-1.193-3.036c29.06-11.422,56.477-27.671,82.993-43.386C244.924,45.567,257.7,38,270.5,30.993l1.565,2.862c-12.748,6.972-25.5,14.53-37.836,21.841C207.6,71.476,180.072,87.794,150.768,99.314Z" transform="translate(-149.575 -30.993)"/></g><g transform="translate(415.922 0.117)"><path class="b" d="M508.255,94.171c-65.451,0-117.225-30.686-167.294-60.361l1.663-2.8c49.69,29.449,101.074,59.9,165.631,59.9s115.936-30.451,165.622-59.9l1.671,2.8C625.475,63.488,573.705,94.171,508.255,94.171Z" transform="translate(-340.961 -31.007)"/></g><g transform="translate(0 0.141)"><path class="b" d="M150.768,77.418l-1.193-3.034c29.047-11.418,56.453-27.661,82.958-43.366l1.7,2.78C207.58,49.595,180.059,65.9,150.768,77.418Z" transform="translate(-149.575 -31.018)"/></g><g transform="translate(453.851 0.087)"><path class="b" d="M487.779,72.321c-52.029,0-94.591-19.446-129.365-38.466l1.563-2.862c34.413,18.824,76.508,38.068,127.8,38.068s93.391-19.244,127.8-38.068l1.565,2.862C582.374,52.875,539.807,72.321,487.779,72.321Z" transform="translate(-358.414 -30.993)"/></g><g transform="translate(0 0.089)"><path class="b" d="M150.768,55.579l-1.193-3.034a391.584,391.584,0,0,0,45.168-21.552l1.565,2.858A394.426,394.426,0,0,1,150.768,55.579Z" transform="translate(-149.575 -30.994)"/></g><g transform="translate(499.97)"><path class="b" d="M462.881,50.5c-27.574,0-54.8-5.4-83.245-16.512l1.187-3.036c28.056,10.959,54.9,16.288,82.058,16.288s54-5.329,82.058-16.288l1.187,3.036C517.685,45.1,490.454,50.5,462.881,50.5Z" transform="translate(-379.636 -30.953)"/></g></g></g></svg>